<?xml version="1.0" encoding="utf-8"?>
<!-- Generator: Adobe Illustrator 25.2.1, SVG Export Plug-In . SVG Version: 6.00 Build 0)  -->
<svg version="1.1" id="Layer_1" xmlns="http://www.w3.org/2000/svg" xmlns:xlink="http://www.w3.org/1999/xlink" x="0px" y="0px"
	 viewBox="0 0 305 45" style="enable-background:new 0 0 305 45;" xml:space="preserve">
<style type="text/css">
	.st0{clip-path:url(#SVGID_2_);fill:#FFFFFF;}
	.st1{clip-path:url(#SVGID_2_);fill:#009BDA;}
	.st2{clip-path:url(#SVGID_2_);}
</style>
<g>
	<g>
		<defs>
			<rect id="SVGID_1_" width="304.4" height="44.5"/>
		</defs>
		<clipPath id="SVGID_2_">
			<use xlink:href="#SVGID_1_"  style="overflow:visible;"/>
		</clipPath>
		<path class="st0" d="M62,34.2c-2-2.1-3-5-3-8.6c0-4,1-7.1,2.9-9.2s4.9-3.3,8.8-3.3c2.5,0,4.8,0.4,6.9,1.1v3.5
			c-2.1-0.8-4.3-1.2-6.6-1.2c-2.8,0-4.9,0.8-6.2,2.3c-1.2,1.5-1.9,3.8-1.9,6.8c0,2.8,0.7,4.9,2,6.3c1.3,1.4,3.4,2.1,6.1,2.1
			c2.4,0,4.6-0.4,6.6-1.1v3.5c-2.1,0.7-4.4,1-6.9,1C66.9,37.3,64,36.3,62,34.2z"/>
		<path class="st0" d="M84.9,13.4h4v20.5H101V37H84.9V13.4z"/>
		<path class="st0" d="M108.9,34.4c-1.8-2-2.8-5-2.8-9.1c0-4.2,0.9-7.3,2.8-9.3s4.6-2.9,8.4-2.9s6.6,1,8.4,2.9
			c1.8,1.9,2.8,5.1,2.8,9.3c0,4.1-0.9,7.2-2.8,9.1c-1.8,2-4.6,3-8.4,3S110.8,36.3,108.9,34.4z M122.8,31.9c1.2-1.4,1.7-3.6,1.7-6.7
			c0-3.2-0.6-5.5-1.7-6.8c-1.1-1.3-3-2-5.5-2c-2.5,0-4.3,0.7-5.4,2c-1.1,1.3-1.7,3.6-1.7,6.8c0,3,0.6,5.3,1.7,6.6
			c1.2,1.4,2.9,2.1,5.4,2.1C119.8,34,121.7,33.3,122.8,31.9z"/>
		<path class="st0" d="M138.4,35c-1.8-1.6-2.7-3.8-2.7-6.8V13.4h4v14.7c0,2,0.5,3.4,1.6,4.4c1.1,1,2.6,1.5,4.6,1.5
			c2,0,3.5-0.5,4.6-1.5c1.1-1,1.6-2.5,1.6-4.4V13.4h3.9v14.8c0,3-0.9,5.2-2.6,6.8c-1.8,1.6-4.3,2.3-7.5,2.3
			C142.7,37.3,140.2,36.5,138.4,35z"/>
		<path class="st0" d="M164.2,13.4h9.5c3.5,0,6.1,0.9,7.8,2.8c1.7,1.9,2.5,4.9,2.5,9.1c0,4-0.8,7-2.5,8.8s-4.3,2.8-7.8,2.8h-9.5
			V13.4z M173.2,33.9c1.6,0,2.9-0.2,3.9-0.7c1-0.5,1.7-1.3,2.2-2.6s0.8-3,0.8-5.3c0-2.3-0.2-4.1-0.7-5.3c-0.5-1.3-1.2-2.2-2.2-2.7
			c-1-0.5-2.3-0.8-4-0.8h-4.9v17.4H173.2z"/>
		<path class="st0" d="M191,36.2v-3.5c2.3,0.9,4.6,1.3,7,1.3c2,0,3.4-0.2,4.3-0.7c0.9-0.5,1.3-1.3,1.3-2.6c0-0.8-0.2-1.5-0.6-1.9
			c-0.4-0.5-1-0.9-1.9-1.2c-0.8-0.3-2.1-0.7-3.8-1.2c-2.5-0.7-4.3-1.5-5.3-2.5c-1-1-1.5-2.4-1.5-4.2c0-2.1,0.8-3.7,2.3-4.9
			c1.5-1.2,3.8-1.7,6.7-1.7c1.3,0,2.5,0.1,3.8,0.3c1.2,0.2,2.2,0.4,2.9,0.7v3.5c-1.9-0.7-3.9-1.1-6.2-1.1c-1.8,0-3.2,0.2-4.2,0.7
			c-0.9,0.5-1.4,1.3-1.4,2.5c0,0.7,0.2,1.3,0.5,1.7c0.3,0.4,0.9,0.8,1.7,1.1c0.8,0.3,2,0.7,3.6,1.1c2.8,0.7,4.7,1.6,5.8,2.8
			c1.1,1.1,1.6,2.6,1.6,4.3c0,2.1-0.8,3.7-2.4,4.9c-1.6,1.2-3.9,1.8-6.9,1.8C195.3,37.3,192.8,36.9,191,36.2z"/>
		<path class="st0" d="M214.7,13.4h4v10.2h11.3V13.4h4V37h-4V26.7h-11.3V37h-4V13.4z"/>
		<path class="st0" d="M242.3,13.4h16.4v3.1h-12.4v7.1h11.1v3.1h-11.1v7.2h12.4V37h-16.4V13.4z"/>
		<path class="st0" d="M265.8,13.4h4v20.5h12.1V37h-16.1L265.8,13.4L265.8,13.4z"/>
		<path class="st0" d="M288.4,13.4h4v20.5h12.1V37h-16.1L288.4,13.4L288.4,13.4z"/>
		<path class="st0" d="M41.2,44.5H6c-3.3,0-6-2.7-6-6V6c0-3.3,2.7-6,6-6h35.2c3.3,0,6,2.7,6,6v32.6C47.2,41.9,44.5,44.5,41.2,44.5z"
			/>
		<path class="st1" d="M39.2,39.2c2.1,0,3.8-1.7,3.8-3.8c0-2.1-1.7-3.8-3.8-3.8s-3.8,1.7-3.8,3.8C35.3,37.5,37,39.2,39.2,39.2z"/>
		<path class="st2" d="M30.5,32.8c-0.6-0.7-1-1.5-1.1-2.4c-1.8,1.6-4,2.4-6.5,2.4c-2.5,0-4.7-0.8-6.7-2.4c-2.5-2-3.7-4.8-3.7-8.2
			c0-3.1,1-5.7,3-7.7s4.4-3,7.3-3c2.9,0,5.3,1,7.3,3.1c2,2.1,3,4.6,3,7.6c0,1.6-0.3,3-0.8,4.3c0.2,0,0.5-0.1,0.8-0.1
			c1,0,1.9,0.4,2.6,1.1s1.1,1.6,1.1,2.7c0,0.2,0,0.4-0.1,0.7c1.6-2.5,2.4-5.4,2.4-8.7c0-4.6-1.6-8.6-4.8-11.8
			c-3.2-3.2-7-4.8-11.5-4.8c-2.9,0-5.7,0.7-8.2,2.2s-4.5,3.5-6,6c-1.5,2.5-2.2,5.3-2.2,8.3c0,4.5,1.6,8.4,4.7,11.6s7,4.9,11.8,4.9
			c4.5,0,8.3-1.6,11.5-4.8c0-0.1,0.1-0.1,0.2-0.2c-0.4,0.2-0.9,0.3-1.4,0.3C32.1,34,31.2,33.6,30.5,32.8z"/>
	</g>
</g>
</svg>
