<svg width="305" height="45" viewBox="0 0 305 45" fill="none" xmlns="http://www.w3.org/2000/svg">
<g clip-path="url(#clip0)">
<path d="M61.98 34.19C59.95 32.1 58.94 29.22 58.94 25.54C58.94 21.56 59.92 18.48 61.87 16.3C63.82 14.12 66.76 13.02 70.69 13.02C73.15 13.02 75.46 13.4 77.61 14.15V17.63C75.54 16.82 73.33 16.42 70.99 16.42C68.14 16.42 66.09 17.18 64.84 18.69C63.6 20.2 62.97 22.48 62.97 25.53C62.97 28.31 63.64 30.41 64.97 31.82C66.3 33.24 68.33 33.94 71.06 33.94C73.48 33.94 75.67 33.56 77.65 32.81V36.32C75.55 36.98 73.25 37.31 70.73 37.31C66.92 37.32 64 36.28 61.98 34.19Z" fill="black"/>
<path d="M84.91 13.39H88.9V33.88H100.98V36.95H84.91V13.39Z" fill="black"/>
<path d="M108.94 34.38C107.1 32.42 106.18 29.37 106.18 25.25C106.18 21 107.1 17.91 108.93 15.96C110.76 14.01 113.56 13.03 117.35 13.03C121.14 13.03 123.94 14.01 125.77 15.96C127.6 17.91 128.52 21.01 128.52 25.25C128.52 29.37 127.6 32.42 125.76 34.38C123.92 36.34 121.12 37.33 117.36 37.33C113.6 37.33 110.78 36.34 108.94 34.38ZM122.79 31.91C123.94 30.54 124.51 28.32 124.51 25.25C124.51 22.05 123.94 19.79 122.81 18.44C121.68 17.1 119.85 16.43 117.34 16.43C114.85 16.43 113.04 17.1 111.91 18.44C110.78 19.78 110.21 22.05 110.21 25.25C110.21 28.3 110.78 30.51 111.93 31.89C113.08 33.27 114.88 33.96 117.35 33.96C119.83 33.96 121.65 33.27 122.79 31.91Z" fill="black"/>
<path d="M138.39 34.98C136.61 33.42 135.72 31.16 135.72 28.21V13.39H139.71V28.06C139.71 30.01 140.25 31.48 141.32 32.47C142.39 33.46 143.94 33.95 145.97 33.95C147.97 33.95 149.51 33.46 150.58 32.47C151.65 31.48 152.19 30.01 152.19 28.06V13.39H156.14V28.21C156.14 31.16 155.26 33.42 153.49 34.98C151.72 36.54 149.21 37.32 145.97 37.32C142.7 37.32 140.17 36.54 138.39 34.98Z" fill="black"/>
<path d="M164.24 13.39H173.79C177.33 13.39 179.93 14.33 181.58 16.21C183.24 18.09 184.07 21.13 184.07 25.32C184.07 29.35 183.24 32.29 181.58 34.16C179.92 36.03 177.32 36.96 173.79 36.96H164.24V13.39ZM173.17 33.88C174.8 33.88 176.12 33.64 177.1 33.17C178.09 32.69 178.83 31.83 179.33 30.59C179.83 29.35 180.08 27.59 180.08 25.32C180.08 23.03 179.85 21.25 179.38 19.98C178.92 18.71 178.19 17.81 177.2 17.29C176.21 16.77 174.86 16.5 173.16 16.5H168.22V33.88H173.17Z" fill="black"/>
<path d="M190.96 36.15V32.64C193.23 33.52 195.56 33.96 197.95 33.96C199.93 33.96 201.36 33.73 202.25 33.26C203.14 32.8 203.59 31.93 203.59 30.66C203.59 29.85 203.4 29.21 203.02 28.74C202.64 28.26 202.03 27.86 201.17 27.51C200.32 27.17 199.03 26.78 197.33 26.34C194.79 25.68 193.01 24.85 191.99 23.83C190.97 22.82 190.45 21.42 190.45 19.64C190.45 17.54 191.22 15.91 192.76 14.75C194.3 13.59 196.54 13.01 199.49 13.01C200.78 13.01 202.03 13.1 203.24 13.28C204.45 13.46 205.43 13.69 206.19 13.96V17.47C204.34 16.76 202.29 16.41 200.04 16.41C198.19 16.41 196.79 16.65 195.87 17.14C194.94 17.63 194.48 18.46 194.48 19.63C194.48 20.34 194.65 20.9 194.99 21.33C195.33 21.76 195.9 22.13 196.69 22.46C197.48 22.79 198.67 23.15 200.26 23.54C203.02 24.25 204.93 25.16 206.01 26.29C207.09 27.42 207.62 28.86 207.62 30.64C207.62 32.74 206.83 34.37 205.26 35.54C203.69 36.71 201.37 37.3 198.33 37.3C195.27 37.32 192.82 36.93 190.96 36.15Z" fill="black"/>
<path d="M214.74 13.39H218.73V23.64H230.07V13.39H234.06V36.96H230.07V26.71H218.73V36.96H214.74V13.39Z" fill="black"/>
<path d="M242.3 13.39H258.73V16.5H246.29V23.64H257.38V26.71H246.29V33.88H258.73V36.95H242.3V13.39Z" fill="black"/>
<path d="M265.77 13.39H269.76V33.88H281.84V36.95H265.78V13.39H265.77Z" fill="black"/>
<path d="M288.38 13.39H292.37V33.88H304.45V36.95H288.39V13.39H288.38Z" fill="black"/>
<path d="M41.2 44.54H5.97C2.67 44.54 0 41.87 0 38.57V5.97C0 2.67 2.67 0 5.97 0H41.2C44.5 0 47.17 2.67 47.17 5.97V38.56C47.18 41.86 44.5 44.54 41.2 44.54Z" fill="black"/>
<path d="M39.16 39.19C41.2753 39.19 42.99 37.4752 42.99 35.36C42.99 33.2447 41.2753 31.53 39.16 31.53C37.0447 31.53 35.33 33.2447 35.33 35.36C35.33 37.4752 37.0447 39.19 39.16 39.19Z" fill="#009BDA"/>
<path d="M30.49 32.83C29.84 32.16 29.48 31.36 29.41 30.44C27.57 32.02 25.4 32.81 22.91 32.81C20.4 32.81 18.18 32.02 16.24 30.44C13.74 28.42 12.5 25.67 12.5 22.19C12.5 19.07 13.49 16.5 15.47 14.48C17.45 12.46 19.9 11.45 22.8 11.45C25.68 11.45 28.13 12.49 30.13 14.56C32.14 16.63 33.15 19.16 33.15 22.15C33.15 23.72 32.87 25.16 32.32 26.47C32.57 26.42 32.82 26.39 33.09 26.39C34.11 26.39 34.99 26.76 35.72 27.5C36.45 28.24 36.82 29.14 36.82 30.19C36.82 30.42 36.8 30.64 36.76 30.85C38.34 28.31 39.13 25.43 39.13 22.19C39.13 17.56 37.53 13.64 34.33 10.42C31.13 7.2 27.31 5.59 22.86 5.59C19.92 5.59 17.18 6.33 14.64 7.8C12.1 9.27 10.1 11.27 8.64 13.79C7.19 16.31 6.46 19.07 6.46 22.08C6.46 26.57 8.02 30.44 11.14 33.7C14.26 36.96 18.18 38.59 22.9 38.59C27.4 38.59 31.23 37 34.39 33.83C34.44 33.78 34.49 33.72 34.55 33.67C34.11 33.86 33.64 33.95 33.13 33.95C32.11 33.95 31.22 33.58 30.49 32.83Z" fill="white"/>
</g>
<defs>
<clipPath id="clip0">
<rect width="304.44" height="44.54" fill="white"/>
</clipPath>
</defs>
</svg>
